<?xml version="1.0" encoding="UTF-8" standalone="no"?>
<!-- Created with Inkscape (http://www.inkscape.org/) -->

<svg
   xmlns:dc="http://purl.org/dc/elements/1.1/"
   xmlns:cc="http://creativecommons.org/ns#"
   xmlns:rdf="http://www.w3.org/1999/02/22-rdf-syntax-ns#"
   xmlns:svg="http://www.w3.org/2000/svg"
   xmlns="http://www.w3.org/2000/svg"
   xmlns:sodipodi="http://sodipodi.sourceforge.net/DTD/sodipodi-0.dtd"
   xmlns:inkscape="http://www.inkscape.org/namespaces/inkscape"
   id="svg4136"
   version="1.1"
   inkscape:version="0.91 r13725"
   width="125"
   height="113.75"
   viewBox="0 0 125 113.75"
   sodipodi:docname="heart.svg">
  <metadata
     id="metadata4142">
    <rdf:RDF>
      <cc:Work
         rdf:about="">
        <dc:format>image/svg+xml</dc:format>
        <dc:type
           rdf:resource="http://purl.org/dc/dcmitype/StillImage" />
        <dc:title></dc:title>
      </cc:Work>
    </rdf:RDF>
  </metadata>
  <defs
     id="defs4140" />
  <sodipodi:namedview
     pagecolor="#ffffff"
     bordercolor="#666666"
     borderopacity="1"
     objecttolerance="10"
     gridtolerance="10"
     guidetolerance="10"
     inkscape:pageopacity="0"
     inkscape:pageshadow="2"
     inkscape:window-width="1366"
     inkscape:window-height="715"
     id="namedview4138"
     showgrid="false"
     inkscape:zoom="3.3568146"
     inkscape:cx="62.5"
     inkscape:cy="56.875"
     inkscape:window-x="-8"
     inkscape:window-y="-8"
     inkscape:window-maximized="1"
     inkscape:current-layer="svg4136" />
  <path
     id="path4146"
     style="fill:#ff0000"
     d="m 58.037409,105.56498 c -3.09375,-3.42135 -11.53125,-10.763635 -18.75,-16.3162 C 11.223714,67.662549 4.2183192,57.758455 3.2729322,38.332203 c -0.425641,-8.74627 -0.06793,-11.768885 1.923082,-16.25 C 10.993153,9.0347668 21.20601,2.2020986 34.911003,2.2020986 c 4.513686,0 10.111584,0.7959102 12.439772,1.7686892 5.161696,2.156694 14.200892,11.2318122 15.216048,15.2765182 0.407883,1.625137 1.102501,2.946689 1.543596,2.936783 0.441095,-0.0099 2.328945,-2.787019 4.195222,-6.171365 4.455192,-8.0791382 12.358892,-12.8544622 22.488272,-13.5871554 11.119457,-0.804309 18.017967,1.6647332 25.491247,9.1235564 7.71169,7.696781 9.85676,14.668334 8.98796,29.211134 -0.98607,16.5057 -7.20291,25.47138 -30.238597,43.608921 -8.31716,6.54866 -18.77836,15.396345 -23.24711,19.66153 l -8.125004,7.75489 -5.625,-6.22062 z" />
</svg>
